<svg width="194" height="56" viewBox="0 0 194 56" fill="none" xmlns="http://www.w3.org/2000/svg">
<g clip-path="url(#clip0_2121_37491)">
<path d="M186.83 56H7.59003C3.64853 56 0.42041 52.8482 0.42041 49V7C0.42041 3.15175 3.64853 2.95956e-06 7.59003 2.95956e-06H186.83C190.772 2.95956e-06 194 3.15175 194 7V49C194 52.8482 190.772 56 186.83 56Z" fill="black"/>
<path d="M186.83 1.12175C190.15 1.12175 192.851 3.759 192.851 7V49C192.851 52.241 190.15 54.8783 186.83 54.8783H7.59003C4.2705 54.8783 1.56934 52.241 1.56934 49V7C1.56934 3.759 4.2705 1.12175 7.59003 1.12175H186.83ZM186.83 2.95956e-06H7.59003C3.64853 2.95956e-06 0.42041 3.15175 0.42041 7V49C0.42041 52.8482 3.64853 56 7.59003 56H186.83C190.772 56 194 52.8482 194 49V7C194 3.15175 190.772 2.95956e-06 186.83 2.95956e-06Z" fill="#A6A6A6"/>
<path d="M68.4135 14.3416C68.4135 15.5106 68.0551 16.4468 67.3488 17.1451C66.5369 17.9728 65.4794 18.3893 64.1835 18.3893C62.9449 18.3893 61.8874 17.9658 61.0199 17.1311C60.1506 16.2841 59.7168 15.2446 59.7168 14.0003C59.7168 12.7561 60.1506 11.7166 61.0199 10.8766C61.8874 10.0348 62.9449 9.61133 64.1835 9.61133C64.8001 9.61133 65.388 9.73558 65.949 9.96658C66.5082 10.1993 66.9635 10.5143 67.2933 10.9028L66.5441 11.6413C65.9687 10.9781 65.1854 10.6508 64.1835 10.6508C63.2801 10.6508 62.4968 10.9588 61.8318 11.5801C61.174 12.2031 60.8442 13.0098 60.8442 14.0003C60.8442 14.9908 61.174 15.8046 61.8318 16.4276C62.4968 17.0418 63.2801 17.3568 64.1835 17.3568C65.1424 17.3568 65.949 17.0418 66.5853 16.4206C67.0047 16.0093 67.2431 15.4423 67.3058 14.7178H64.1835V13.7063H68.349C68.3992 13.9251 68.4135 14.1368 68.4135 14.3416V14.3416Z" fill="white" stroke="white" stroke-width="0.16" stroke-miterlimit="10"/>
<path d="M75.022 10.8342H71.1092V13.4942H74.6366V14.5057H71.1092V17.1657H75.022V18.1965H70.0015V9.80347H75.022V10.8342Z" fill="white" stroke="white" stroke-width="0.16" stroke-miterlimit="10"/>
<path d="M79.686 18.1965H78.5783V10.8342H76.1782V9.80347H82.0878V10.8342H79.686V18.1965V18.1965Z" fill="white" stroke="white" stroke-width="0.16" stroke-miterlimit="10"/>
<path d="M86.3643 18.1965V9.80347H87.4702V18.1965H86.3643Z" fill="white" stroke="white" stroke-width="0.16" stroke-miterlimit="10"/>
<path d="M92.373 18.1965H91.2742V10.8342H88.8652V9.80347H94.7819V10.8342H92.373V18.1965Z" fill="white" stroke="white" stroke-width="0.16" stroke-miterlimit="10"/>
<path d="M105.97 17.1171C105.122 17.9658 104.071 18.3893 102.819 18.3893C101.558 18.3893 100.508 17.9658 99.6603 17.1171C98.8143 16.2701 98.3931 15.2306 98.3931 14.0003C98.3931 12.7701 98.8143 11.7306 99.6603 10.8836C100.508 10.0348 101.558 9.61133 102.819 9.61133C104.064 9.61133 105.115 10.0348 105.962 10.8906C106.816 11.7446 107.237 12.7771 107.237 14.0003C107.237 15.2306 106.816 16.2701 105.97 17.1171ZM100.479 16.4136C101.118 17.0418 101.894 17.3568 102.819 17.3568C103.736 17.3568 104.52 17.0418 105.15 16.4136C105.787 15.7853 106.109 14.9786 106.109 14.0003C106.109 13.0221 105.787 12.2153 105.15 11.5871C104.52 10.9588 103.736 10.6438 102.819 10.6438C101.894 10.6438 101.118 10.9588 100.479 11.5871C99.8431 12.2153 99.5205 13.0221 99.5205 14.0003C99.5205 14.9786 99.8431 15.7853 100.479 16.4136V16.4136Z" fill="white" stroke="white" stroke-width="0.16" stroke-miterlimit="10"/>
<path d="M108.791 18.1965V9.80347H110.135L114.315 16.331H114.364L114.315 14.7175V9.80347H115.421V18.1965H114.267L109.89 11.347H109.841L109.89 12.9675V18.1965H108.791V18.1965Z" fill="white" stroke="white" stroke-width="0.16" stroke-miterlimit="10"/>
<path d="M98.1212 30.4537C94.7533 30.4537 92.0019 32.9562 92.0019 36.409C92.0019 39.8337 94.7533 42.3625 98.1212 42.3625C101.496 42.3625 104.248 39.8337 104.248 36.409C104.248 32.9562 101.496 30.4537 98.1212 30.4537ZM98.1212 40.0175C96.2732 40.0175 94.6834 38.5282 94.6834 36.409C94.6834 34.2617 96.2732 32.7987 98.1212 32.7987C99.9692 32.7987 101.566 34.2617 101.566 36.409C101.566 38.5282 99.9692 40.0175 98.1212 40.0175V40.0175ZM84.7696 30.4537C81.3945 30.4537 78.6503 32.9562 78.6503 36.409C78.6503 39.8337 81.3945 42.3625 84.7696 42.3625C88.1429 42.3625 90.8888 39.8337 90.8888 36.409C90.8888 32.9562 88.1429 30.4537 84.7696 30.4537ZM84.7696 40.0175C82.9198 40.0175 81.3246 38.5282 81.3246 36.409C81.3246 34.2617 82.9198 32.7987 84.7696 32.7987C86.6175 32.7987 88.2074 34.2617 88.2074 36.409C88.2074 38.5282 86.6175 40.0175 84.7696 40.0175ZM68.8817 32.279V34.8095H75.0709C74.8898 36.2235 74.4059 37.263 73.6638 37.9875C72.7605 38.8625 71.3534 39.8337 68.8817 39.8337C65.0728 39.8337 62.0903 36.8325 62.0903 33.1137C62.0903 29.395 65.0728 26.3937 68.8817 26.3937C70.9412 26.3937 72.4396 27.1795 73.5455 28.198L75.372 26.4147C73.8252 24.9727 71.7675 23.865 68.8817 23.865C63.6586 23.865 59.269 28.0142 59.269 33.1137C59.269 38.2132 63.6586 42.3625 68.8817 42.3625C71.7047 42.3625 73.8252 41.4595 75.4921 39.7655C77.2003 38.0977 77.7326 35.7527 77.7326 33.8592C77.7326 33.2712 77.6824 32.7305 77.5928 32.279H68.8817ZM133.849 34.2407C133.346 32.909 131.792 30.4537 128.626 30.4537C125.489 30.4537 122.878 32.867 122.878 36.409C122.878 39.7445 125.463 42.3625 128.927 42.3625C131.729 42.3625 133.346 40.6947 134.011 39.7235L131.931 38.3707C131.238 39.3612 130.293 40.0175 128.927 40.0175C127.57 40.0175 126.597 39.4102 125.973 38.2132L134.131 34.918L133.849 34.2407V34.2407ZM125.532 36.2235C125.463 33.9275 127.359 32.7515 128.718 32.7515C129.782 32.7515 130.686 33.2712 130.987 34.015L125.532 36.2235V36.2235ZM118.902 42.0002H121.584V24.5002H118.902V42.0002ZM114.511 31.7802H114.421C113.819 31.0837 112.67 30.4537 111.215 30.4537C108.16 30.4537 105.368 33.0717 105.368 36.4282C105.368 39.7655 108.16 42.3625 111.215 42.3625C112.67 42.3625 113.819 41.7272 114.421 41.0097H114.511V41.8637C114.511 44.1405 113.265 45.3637 111.256 45.3637C109.618 45.3637 108.601 44.2087 108.182 43.2375L105.85 44.1877C106.522 45.7662 108.302 47.7087 111.256 47.7087C114.4 47.7087 117.053 45.9027 117.053 41.5085V30.816H114.511V31.7802V31.7802ZM111.444 40.0175C109.596 40.0175 108.049 38.5072 108.049 36.4282C108.049 34.33 109.596 32.7987 111.444 32.7987C113.265 32.7987 114.701 34.33 114.701 36.4282C114.701 38.5072 113.265 40.0175 111.444 40.0175V40.0175ZM146.403 24.5002H139.99V42.0002H142.664V35.3695H146.403C149.373 35.3695 152.286 33.2712 152.286 29.934C152.286 26.5985 149.366 24.5002 146.403 24.5002V24.5002ZM146.473 32.9352H142.664V26.9345H146.473C148.47 26.9345 149.61 28.5532 149.61 29.934C149.61 31.2885 148.47 32.9352 146.473 32.9352ZM163.004 30.4205C161.072 30.4205 159.063 31.2535 158.237 33.0997L160.61 34.071C161.121 33.0997 162.06 32.7847 163.053 32.7847C164.44 32.7847 165.847 33.5985 165.869 35.0352V35.219C165.385 34.946 164.349 34.5417 163.074 34.5417C160.518 34.5417 157.914 35.9155 157.914 38.4792C157.914 40.8242 160.008 42.3345 162.361 42.3345C164.161 42.3345 165.154 41.5417 165.777 40.6195H165.869V41.9722H168.452V35.2592C168.452 32.1565 166.078 30.4205 163.004 30.4205ZM162.682 40.0105C161.807 40.0105 160.588 39.587 160.588 38.5282C160.588 37.1737 162.108 36.654 163.424 36.654C164.601 36.654 165.154 36.9077 165.869 37.242C165.659 38.8625 164.23 40.0105 162.682 40.0105V40.0105ZM177.862 30.8037L174.788 38.39H174.696L171.518 30.8037H168.634L173.409 41.4052L170.685 47.3045H173.479L180.837 30.8037H177.862V30.8037ZM153.756 42.0002H156.437V24.5002H153.756V42.0002Z" fill="white"/>
<path d="M15.3832 10.5541C14.962 10.9846 14.7183 11.6549 14.7183 12.5229V43.4839C14.7183 44.3519 14.962 45.0221 15.3832 45.4526L15.4872 45.5471L33.2571 28.2046V27.7951L15.4872 10.4526L15.3832 10.5541Z" fill="url(#paint0_linear_2121_37491)"/>
<path d="M39.1741 33.9883L33.2573 28.2045V27.795L39.1812 22.0113L39.3139 22.0865L46.3293 25.9838C48.3314 27.0898 48.3314 28.9098 46.3293 30.0228L39.3139 33.913L39.1741 33.9883V33.9883Z" fill="url(#paint1_linear_2121_37491)"/>
<path d="M39.3142 33.9135L33.2576 28.0002L15.3838 45.453C16.0488 46.1355 17.1332 46.2177 18.3663 45.5352L39.3142 33.9135" fill="url(#paint2_linear_2121_37491)"/>
<path d="M39.3142 22.0868L18.3663 10.465C17.1332 9.7895 16.0488 9.87175 15.3838 10.5542L33.2576 28L39.3142 22.0868Z" fill="url(#paint3_linear_2121_37491)"/>
</g>
<defs>
<linearGradient id="paint0_linear_2121_37491" x1="31.6793" y1="43.8063" x2="8.19072" y2="19.7485" gradientUnits="userSpaceOnUse">
<stop stop-color="#00A0FF"/>
<stop offset="0.0066" stop-color="#00A1FF"/>
<stop offset="0.2601" stop-color="#00BEFF"/>
<stop offset="0.5122" stop-color="#00D2FF"/>
<stop offset="0.7604" stop-color="#00DFFF"/>
<stop offset="1" stop-color="#00E3FF"/>
</linearGradient>
<linearGradient id="paint1_linear_2121_37491" x1="48.9364" y1="27.9978" x2="14.2399" y2="27.9978" gradientUnits="userSpaceOnUse">
<stop stop-color="#FFE000"/>
<stop offset="0.4087" stop-color="#FFBD00"/>
<stop offset="0.7754" stop-color="#FFA500"/>
<stop offset="1" stop-color="#FF9C00"/>
</linearGradient>
<linearGradient id="paint2_linear_2121_37491" x1="36.0208" y1="24.7857" x2="4.16833" y2="-7.83864" gradientUnits="userSpaceOnUse">
<stop stop-color="#FF3A44"/>
<stop offset="1" stop-color="#C31162"/>
</linearGradient>
<linearGradient id="paint3_linear_2121_37491" x1="10.8846" y1="55.7533" x2="25.1081" y2="41.1852" gradientUnits="userSpaceOnUse">
<stop stop-color="#32A071"/>
<stop offset="0.0685" stop-color="#2DA771"/>
<stop offset="0.4762" stop-color="#15CF74"/>
<stop offset="0.8009" stop-color="#06E775"/>
<stop offset="1" stop-color="#00F076"/>
</linearGradient>
<clipPath id="clip0_2121_37491">
<rect width="154.864" height="44.8" fill="white" transform="matrix(1.25 0 0 -1.25 0.42041 56)"/>
</clipPath>
</defs>
</svg>
