<svg width="195" height="56" viewBox="0 0 195 56" fill="none" xmlns="http://www.w3.org/2000/svg">
<path d="M193.343 49.542C193.343 52.5263 190.875 54.9437 187.823 54.9437H7.17811C4.12726 54.9437 1.65088 52.5263 1.65088 49.542V6.46559C1.65088 3.48269 4.12726 1.05688 7.17811 1.05688H187.822C190.875 1.05688 193.342 3.48269 193.342 6.46559L193.343 49.542Z" fill="black"/>
<path d="M187.241 1.12175C190.565 1.12175 193.27 3.759 193.27 7V49C193.27 52.241 190.565 54.8783 187.241 54.8783H7.75371C4.4296 54.8783 1.72473 52.241 1.72473 49V7C1.72473 3.759 4.4296 1.12175 7.75371 1.12175H187.241ZM187.241 2.95956e-06H7.75371C3.80678 2.95956e-06 0.574219 3.15175 0.574219 7V49C0.574219 52.8482 3.80678 56 7.75371 56H187.241C191.188 56 194.42 52.8482 194.42 49V7C194.42 3.15175 191.188 2.95956e-06 187.241 2.95956e-06Z" fill="#A6A6A6"/>
<path d="M43.8352 27.6974C43.7936 23.1852 47.6246 20.99 47.7997 20.8878C45.6301 17.8036 42.2672 17.3822 41.0855 17.3486C38.2611 17.0588 35.5214 18.9964 34.0826 18.9964C32.6151 18.9964 30.3995 17.3766 28.0116 17.4242C24.9388 17.4704 22.0642 19.205 20.4875 21.8986C17.2338 27.3908 19.6605 35.4618 22.7778 39.9012C24.3372 42.0754 26.1593 44.503 28.5444 44.4176C30.8777 44.3238 31.7493 42.9672 34.5651 42.9672C37.355 42.9672 38.1735 44.4176 40.6059 44.363C43.1101 44.3238 44.6867 42.179 46.1915 39.9852C47.9936 37.4932 48.7173 35.039 48.746 34.913C48.6871 34.8934 43.8826 33.1056 43.8352 27.6974Z" fill="white"/>
<path d="M39.2404 14.4282C40.4953 12.898 41.354 10.8162 41.1156 8.70361C39.2992 8.78201 37.0276 9.92861 35.7195 11.4252C34.5622 12.744 33.5284 14.9056 33.7954 16.9384C35.8358 17.0868 37.9308 15.9346 39.2404 14.4282Z" fill="white"/>
<path d="M77.603 44.1053H74.3421L72.5558 38.6327H66.347L64.6455 44.1053H61.4707L67.6221 25.4741H71.4215L77.603 44.1053ZM72.0174 36.3367L70.402 31.4717C70.2311 30.9747 69.9109 29.8043 69.4385 27.9619H69.3811C69.193 28.7543 68.89 29.9247 68.4736 31.4717L66.8869 36.3367H72.0174V36.3367Z" fill="white"/>
<path d="M93.4224 37.2231C93.4224 39.5079 92.7892 41.3139 91.5228 42.6397C90.3884 43.8199 88.9798 44.4093 87.2983 44.4093C85.4834 44.4093 84.1796 43.7737 83.3855 42.5025H83.3281V49.5795H80.2668V35.0937C80.2668 33.6573 80.228 32.1831 80.1533 30.6711H82.8456L83.0165 32.8005H83.0739C84.0949 31.1961 85.6442 30.3953 87.7234 30.3953C89.3488 30.3953 90.7057 31.0211 91.7913 32.2741C92.8797 33.5285 93.4224 35.1777 93.4224 37.2231ZM90.3037 37.3323C90.3037 36.0247 90.0021 34.9467 89.3962 34.0983C88.7342 33.2135 87.8454 32.7711 86.7312 32.7711C85.9759 32.7711 85.2895 33.0175 84.6764 33.5033C84.0618 33.9933 83.6598 34.6331 83.4717 35.4255C83.3769 35.7951 83.3295 36.0975 83.3295 36.3355V38.5755C83.3295 39.5527 83.6368 40.3773 84.2514 41.0507C84.8659 41.7241 85.6643 42.0601 86.6464 42.0601C87.7995 42.0601 88.6969 41.6261 89.3388 40.7609C89.982 39.8943 90.3037 38.7519 90.3037 37.3323Z" fill="white"/>
<path d="M109.27 37.2231C109.27 39.5079 108.637 41.3139 107.369 42.6397C106.236 43.8199 104.827 44.4093 103.146 44.4093C101.331 44.4093 100.027 43.7737 99.2346 42.5025H99.1772V49.5795H96.1159V35.0937C96.1159 33.6573 96.0771 32.1831 96.0024 30.6711H98.6947L98.8656 32.8005H98.9231C99.9425 31.1961 101.492 30.3953 103.572 30.3953C105.196 30.3953 106.553 31.0211 107.642 32.2741C108.726 33.5285 109.27 35.1777 109.27 37.2231ZM106.151 37.3323C106.151 36.0247 105.848 34.9467 105.242 34.0983C104.58 33.2135 103.695 32.7711 102.579 32.7711C101.822 32.7711 101.137 33.0175 100.523 33.5033C99.9081 33.9933 99.5075 34.6331 99.3194 35.4255C99.226 35.7951 99.1772 36.0975 99.1772 36.3355V38.5755C99.1772 39.5527 99.4845 40.3773 100.096 41.0507C100.711 41.7227 101.509 42.0601 102.494 42.0601C103.647 42.0601 104.545 41.6261 105.186 40.7609C105.83 39.8943 106.151 38.7519 106.151 37.3323Z" fill="white"/>
<path d="M126.989 38.8808C126.989 40.4656 126.425 41.755 125.292 42.7504C124.047 43.8382 122.314 44.3814 120.087 44.3814C118.03 44.3814 116.382 43.995 115.134 43.2208L115.844 40.733C117.188 41.5254 118.662 41.923 120.269 41.923C121.422 41.923 122.32 41.6682 122.964 41.1614C123.606 40.6546 123.926 39.9742 123.926 39.1258C123.926 38.3698 123.662 37.7328 123.132 37.2162C122.605 36.6996 121.725 36.2194 120.496 35.7756C117.15 34.559 115.479 32.7768 115.479 30.4332C115.479 28.9016 116.065 27.6458 117.238 26.6686C118.407 25.69 119.966 25.2014 121.916 25.2014C123.655 25.2014 125.099 25.4968 126.252 26.0862L125.487 28.5194C124.41 27.9482 123.193 27.6626 121.83 27.6626C120.753 27.6626 119.912 27.9216 119.308 28.4368C118.799 28.8974 118.543 29.4588 118.543 30.1238C118.543 30.8602 118.835 31.4692 119.42 31.948C119.93 32.3904 120.856 32.8692 122.2 33.3858C123.844 34.0312 125.052 34.7858 125.829 35.651C126.603 36.5134 126.989 37.5928 126.989 38.8808Z" fill="white"/>
<path d="M137.111 32.9114H133.736V39.434C133.736 41.093 134.331 41.9218 135.523 41.9218C136.07 41.9218 136.523 41.8756 136.882 41.7832L136.967 44.0498C136.364 44.2696 135.57 44.3802 134.586 44.3802C133.377 44.3802 132.432 44.0204 131.75 43.3022C131.071 42.5826 130.729 41.3758 130.729 39.6804V32.9086H128.719V30.6686H130.729V28.2088L133.736 27.324V30.6686H137.111V32.9114Z" fill="white"/>
<path d="M152.336 37.2777C152.336 39.3427 151.73 41.0381 150.521 42.3639C149.253 43.7289 147.57 44.4093 145.472 44.4093C143.451 44.4093 141.841 43.7555 140.64 42.4479C139.44 41.1403 138.84 39.4897 138.84 37.5003C138.84 35.4185 139.457 33.7133 140.696 32.3875C141.933 31.0603 143.601 30.3967 145.699 30.3967C147.721 30.3967 149.348 31.0505 150.575 32.3595C151.75 33.6293 152.336 35.2687 152.336 37.2777ZM149.16 37.3743C149.16 36.1353 148.888 35.0727 148.338 34.1865C147.696 33.1141 146.779 32.5793 145.59 32.5793C144.359 32.5793 143.425 33.1155 142.783 34.1865C142.233 35.0741 141.961 36.1535 141.961 37.4303C141.961 38.6693 142.233 39.7319 142.783 40.6167C143.445 41.6891 144.369 42.2239 145.563 42.2239C146.732 42.2239 147.649 41.6779 148.311 40.5887C148.875 39.6857 149.16 38.6119 149.16 37.3743Z" fill="white"/>
<path d="M162.286 33.2963C161.984 33.2417 161.66 33.2137 161.322 33.2137C160.245 33.2137 159.412 33.6099 158.826 34.4037C158.316 35.1037 158.061 35.9885 158.061 37.0567V44.1057H155.001L155.029 34.9021C155.029 33.3537 154.991 31.9439 154.915 30.6727H157.581L157.693 33.2431H157.778C158.101 32.3597 158.611 31.6485 159.308 31.1151C159.99 30.6349 160.727 30.3955 161.521 30.3955C161.804 30.3955 162.06 30.4151 162.286 30.4501V33.2963Z" fill="white"/>
<path d="M175.978 36.7527C175.978 37.2875 175.942 37.7383 175.866 38.1065H166.682C166.718 39.4337 167.161 40.4487 168.014 41.1487C168.788 41.7745 169.789 42.0881 171.018 42.0881C172.378 42.0881 173.619 41.8767 174.734 41.4525L175.214 43.5245C173.91 44.0789 172.371 44.3547 170.595 44.3547C168.458 44.3547 166.781 43.7415 165.56 42.5165C164.343 41.2915 163.732 39.6465 163.732 37.5829C163.732 35.5571 164.3 33.8701 165.435 32.5247C166.624 31.0883 168.231 30.3701 170.253 30.3701C172.239 30.3701 173.742 31.0883 174.763 32.5247C175.571 33.6657 175.978 35.0769 175.978 36.7527ZM173.059 35.9785C173.079 35.0937 172.879 34.3293 172.464 33.6839C171.934 32.8537 171.12 32.4393 170.025 32.4393C169.024 32.4393 168.21 32.8439 167.588 33.6559C167.078 34.3013 166.775 35.0755 166.682 35.9771H173.059V35.9785Z" fill="white"/>
<path d="M71.0051 14.0129C71.0051 15.6607 70.4982 16.9011 69.4859 17.7341C68.5483 18.5027 67.2158 18.8877 65.4898 18.8877C64.634 18.8877 63.9017 18.8513 63.2886 18.7785V9.77512C64.0884 9.64912 64.9499 9.58472 65.8804 9.58472C67.5245 9.58472 68.7637 9.93332 69.5993 10.6305C70.5356 11.4187 71.0051 12.5457 71.0051 14.0129ZM69.4184 14.0535C69.4184 12.9853 69.1284 12.1663 68.5483 11.5951C67.9682 11.0253 67.121 10.7397 66.0053 10.7397C65.5314 10.7397 65.128 10.7705 64.7934 10.8349V17.6795C64.9786 17.7075 65.3175 17.7201 65.81 17.7201C66.9616 17.7201 67.8504 17.4079 68.4765 16.7835C69.1025 16.1591 69.4184 15.2491 69.4184 14.0535Z" fill="white"/>
<path d="M79.4181 15.4519C79.4181 16.4669 79.1209 17.2985 78.5264 17.9509C77.9032 18.6215 77.0776 18.9561 76.0466 18.9561C75.053 18.9561 74.2618 18.6355 73.6717 17.9915C73.0829 17.3489 72.7886 16.5383 72.7886 15.5611C72.7886 14.5391 73.0915 13.7005 73.7004 13.0495C74.3092 12.3985 75.1277 12.0723 76.1586 12.0723C77.1523 12.0723 77.9506 12.3929 78.5551 13.0355C79.1295 13.6599 79.4181 14.4663 79.4181 15.4519ZM77.8573 15.4995C77.8573 14.8905 77.7223 14.3683 77.4538 13.9329C77.1379 13.4065 76.6885 13.1433 76.1041 13.1433C75.4996 13.1433 75.0401 13.4065 74.7242 13.9329C74.4542 14.3683 74.3207 14.8989 74.3207 15.5261C74.3207 16.1351 74.4557 16.6573 74.7242 17.0927C75.0501 17.6191 75.5039 17.8823 76.0897 17.8823C76.6641 17.8823 77.1149 17.6149 77.4394 17.0787C77.718 16.6349 77.8573 16.1085 77.8573 15.4995Z" fill="white"/>
<path d="M90.6983 12.207L88.5803 18.8066H87.2019L86.3245 15.9408C86.102 15.2254 85.9211 14.5142 85.7803 13.8086H85.7531C85.6224 14.5338 85.4415 15.2436 85.2089 15.9408L84.277 18.8066H82.8827L80.8911 12.207H82.4376L83.2029 15.3444C83.3881 16.0864 83.5403 16.7934 83.6624 17.4626H83.6897C83.8017 16.911 83.9869 16.2082 84.2482 15.3584L85.2089 12.2084H86.4351L87.3555 15.2912C87.5781 16.043 87.759 16.7668 87.8983 17.464H87.9399C88.0419 16.785 88.1955 16.0612 88.3994 15.2912L89.2208 12.2084H90.6983V12.207Z" fill="white"/>
<path d="M98.4995 18.8066H96.9947V15.0266C96.9947 13.8618 96.541 13.2794 95.6306 13.2794C95.184 13.2794 94.8236 13.439 94.5436 13.7596C94.2665 14.0802 94.1258 14.4582 94.1258 14.8908V18.8052H92.621V14.0928C92.621 13.5132 92.6023 12.8846 92.5664 12.2042H93.8889L93.9592 13.236H94.0009C94.176 12.9154 94.4374 12.6508 94.7806 12.4394C95.1884 12.193 95.645 12.0684 96.1447 12.0684C96.7765 12.0684 97.302 12.2672 97.7198 12.6662C98.2396 13.1548 98.4995 13.8842 98.4995 14.853V18.8066V18.8066Z" fill="white"/>
<path d="M102.649 18.8065H101.146V9.17871H102.649V18.8065Z" fill="white"/>
<path d="M111.508 15.4519C111.508 16.4669 111.211 17.2985 110.617 17.9509C109.994 18.6215 109.166 18.9561 108.137 18.9561C107.142 18.9561 106.351 18.6355 105.762 17.9915C105.173 17.3489 104.879 16.5383 104.879 15.5611C104.879 14.5391 105.182 13.7005 105.791 13.0495C106.4 12.3985 107.218 12.0723 108.248 12.0723C109.243 12.0723 110.04 12.3929 110.645 13.0355C111.22 13.6599 111.508 14.4663 111.508 15.4519ZM109.946 15.4995C109.946 14.8905 109.811 14.3683 109.543 13.9329C109.228 13.4065 108.777 13.1433 108.194 13.1433C107.588 13.1433 107.129 13.4065 106.814 13.9329C106.545 14.3683 106.411 14.8989 106.411 15.5261C106.411 16.1351 106.546 16.6573 106.814 17.0927C107.14 17.6191 107.594 17.8823 108.18 17.8823C108.754 17.8823 109.204 17.6149 109.528 17.0787C109.808 16.6349 109.946 16.1085 109.946 15.4995Z" fill="white"/>
<path d="M118.792 18.8063H117.441L117.329 18.0461H117.287C116.825 18.6523 116.166 18.9561 115.31 18.9561C114.671 18.9561 114.154 18.7559 113.765 18.3583C113.411 17.9971 113.235 17.5477 113.235 17.0143C113.235 16.2079 113.579 15.5933 114.273 15.1677C114.965 14.7421 115.939 14.5335 117.192 14.5433V14.4201C117.192 13.5507 116.724 13.1167 115.786 13.1167C115.119 13.1167 114.53 13.2805 114.022 13.6053L113.716 12.6421C114.345 12.2627 115.122 12.0723 116.038 12.0723C117.807 12.0723 118.694 12.9823 118.694 14.8023V17.2327C118.694 17.8921 118.727 18.4171 118.792 18.8063ZM117.23 16.5383V15.5205C115.57 15.4925 114.74 15.9363 114.74 16.8505C114.74 17.1949 114.834 17.4525 115.028 17.6247C115.222 17.7969 115.469 17.8823 115.763 17.8823C116.094 17.8823 116.402 17.7801 116.684 17.5771C116.967 17.3727 117.141 17.1137 117.205 16.7959C117.221 16.7245 117.23 16.6377 117.23 16.5383Z" fill="white"/>
<path d="M127.343 18.8065H126.007L125.937 17.7467H125.895C125.469 18.5531 124.742 18.9563 123.722 18.9563C122.906 18.9563 122.227 18.6441 121.688 18.0197C121.15 17.3953 120.881 16.5847 120.881 15.5893C120.881 14.5211 121.173 13.6559 121.759 12.9951C122.326 12.3791 123.021 12.0711 123.848 12.0711C124.757 12.0711 125.393 12.3693 125.755 12.9671H125.783V9.17871H127.29V17.0285C127.29 17.6711 127.307 18.2633 127.343 18.8065ZM125.783 16.0233V14.9229C125.783 14.7325 125.769 14.5785 125.742 14.4609C125.657 14.1081 125.475 13.8113 125.198 13.5719C124.918 13.3325 124.58 13.2121 124.191 13.2121C123.63 13.2121 123.19 13.4291 122.867 13.8645C122.547 14.2999 122.385 14.8557 122.385 15.5347C122.385 16.1871 122.538 16.7163 122.847 17.1237C123.173 17.5577 123.612 17.7747 124.162 17.7747C124.656 17.7747 125.051 17.5941 125.351 17.2315C125.641 16.8969 125.783 16.4937 125.783 16.0233Z" fill="white"/>
<path d="M140.213 15.4519C140.213 16.4669 139.915 17.2985 139.321 17.9509C138.698 18.6215 137.873 18.9561 136.841 18.9561C135.849 18.9561 135.058 18.6355 134.466 17.9915C133.877 17.3489 133.583 16.5383 133.583 15.5611C133.583 14.5391 133.886 13.7005 134.495 13.0495C135.104 12.3985 135.922 12.0723 136.954 12.0723C137.947 12.0723 138.746 12.3929 139.35 13.0355C139.924 13.6599 140.213 14.4663 140.213 15.4519ZM138.653 15.4995C138.653 14.8905 138.518 14.3683 138.25 13.9329C137.932 13.4065 137.484 13.1433 136.898 13.1433C136.295 13.1433 135.836 13.4065 135.519 13.9329C135.249 14.3683 135.115 14.8989 135.115 15.5261C135.115 16.1351 135.25 16.6573 135.519 17.0927C135.845 17.6191 136.298 17.8823 136.884 17.8823C137.458 17.8823 137.911 17.6149 138.235 17.0787C138.512 16.6349 138.653 16.1085 138.653 15.4995Z" fill="white"/>
<path d="M148.304 18.8066H146.8V15.0266C146.8 13.8618 146.347 13.2794 145.435 13.2794C144.988 13.2794 144.628 13.439 144.349 13.7596C144.071 14.0802 143.931 14.4582 143.931 14.8908V18.8052H142.425V14.0928C142.425 13.5132 142.408 12.8846 142.372 12.2042H143.693L143.763 13.236H143.805C143.982 12.9154 144.243 12.6508 144.585 12.4394C144.994 12.193 145.449 12.0684 145.95 12.0684C146.581 12.0684 147.106 12.2672 147.524 12.6662C148.045 13.1548 148.304 13.8842 148.304 14.853V18.8066V18.8066Z" fill="white"/>
<path d="M158.431 13.3056H156.774V16.5116C156.774 17.3264 157.068 17.7338 157.651 17.7338C157.921 17.7338 158.145 17.7114 158.322 17.6652L158.361 18.7782C158.063 18.8874 157.673 18.942 157.192 18.942C156.597 18.942 156.135 18.7656 155.8 18.4128C155.464 18.06 155.298 17.4664 155.298 16.6334V13.3056H154.309V12.2066H155.298V10.997L156.773 10.563V12.2052H158.43V13.3056H158.431Z" fill="white"/>
<path d="M166.398 18.8065H164.891V15.0545C164.891 13.8715 164.438 13.2793 163.529 13.2793C162.831 13.2793 162.354 13.6223 162.093 14.3083C162.048 14.4525 162.022 14.6289 162.022 14.8361V18.8051H160.519V9.17871H162.022V13.1561H162.051C162.525 12.4323 163.204 12.0711 164.084 12.0711C164.708 12.0711 165.223 12.2699 165.632 12.6689C166.142 13.1659 166.398 13.9051 166.398 14.8823V18.8065V18.8065Z" fill="white"/>
<path d="M174.615 15.1947C174.615 15.4579 174.595 15.6791 174.559 15.8597H170.046C170.067 16.5121 170.282 17.0091 170.7 17.3535C171.082 17.6615 171.574 17.8155 172.177 17.8155C172.845 17.8155 173.454 17.7119 174.002 17.5033L174.238 18.5225C173.596 18.7941 172.841 18.9299 171.966 18.9299C170.918 18.9299 170.092 18.6289 169.495 18.0269C168.895 17.4249 168.598 16.6171 168.598 15.6035C168.598 14.6081 168.875 13.7793 169.433 13.1185C170.016 12.4129 170.805 12.0601 171.8 12.0601C172.773 12.0601 173.513 12.4129 174.012 13.1185C174.416 13.6785 174.615 14.3715 174.615 15.1947ZM173.18 14.8153C173.191 14.3799 173.092 14.0047 172.888 13.6883C172.627 13.2809 172.229 13.0765 171.691 13.0765C171.199 13.0765 170.799 13.2753 170.493 13.6743C170.243 13.9921 170.095 14.3715 170.046 14.8153H173.18Z" fill="white"/>
</svg>
