<?xml version="1.0" encoding="UTF-8"?>
<svg width="40" height="40" viewBox="0 0 40 40" fill="none" xmlns="http://www.w3.org/2000/svg">
  <rect width="40" height="40" rx="6" fill="#0D6EFD"/>
  <path d="M13.8 10.2H24.6C25.1522 10.2 25.6 10.6478 25.6 11.2V15.4C25.6 15.9522 25.1522 16.4 24.6 16.4H13.8C13.2478 16.4 12.8 15.9522 12.8 15.4V11.2C12.8 10.6478 13.2478 10.2 13.8 10.2Z" fill="white"/>
  <path d="M22.9143 22.8H13.8C13.2478 22.8 12.8 23.2478 12.8 23.8V28C12.8 28.5522 13.2478 29 13.8 29H22.9143C23.4665 29 23.9143 28.5522 23.9143 28V23.8C23.9143 23.2478 23.4665 22.8 22.9143 22.8Z" fill="white"/>
  <path d="M27.8 23.8C27.8 23.2478 27.3522 22.8 26.8 22.8H26.4C25.8478 22.8 25.4 23.2478 25.4 23.8V28C25.4 28.5522 25.8478 29 26.4 29H26.8C27.3522 29 27.8 28.5522 27.8 28V23.8Z" fill="white"/>
  <path d="M22.9143 17.6H13.8C13.2478 17.6 12.8 18.0478 12.8 18.6V20.8C12.8 21.3522 13.2478 21.8 13.8 21.8H22.9143C23.4665 21.8 23.9143 21.3522 23.9143 20.8V18.6C23.9143 18.0478 23.4665 17.6 22.9143 17.6Z" fill="white"/>
  <path d="M26.8 17.6H26.4C25.8478 17.6 25.4 18.0478 25.4 18.6V20.8C25.4 21.3522 25.8478 21.8 26.4 21.8H26.8C27.3522 21.8 27.8 21.3522 27.8 20.8V18.6C27.8 18.0478 27.3522 17.6 26.8 17.6Z" fill="white"/>
</svg>
